<svg fill="#26e07f" xmlns="http://www.w3.org/2000/svg"  viewBox="0 0 64 64" width="64px" height="64px"><path d="M 7 8 C 4.242188 8 2 10.242188 2 13 L 2 47 C 2 49.757813 4.242188 52 7 52 L 57 52 C 59.757813 52 62 49.757813 62 47 L 62 13 C 62 10.242188 59.757813 8 57 8 Z M 8.847656 10 L 55.152344 10 L 32.585938 26.34375 C 32.234375 26.597656 31.761719 26.597656 31.410156 26.34375 Z M 5.796875 10.257813 L 30.238281 27.960938 C 30.765625 28.34375 31.382813 28.53125 32 28.53125 C 32.617188 28.53125 33.234375 28.34375 33.761719 27.960938 L 58.203125 10.257813 C 59.257813 10.722656 60 11.773438 60 13 L 60 47 C 60 48.652344 58.652344 50 57 50 L 54 50 L 54 21.792969 C 54 21.417969 53.789063 21.074219 53.453125 20.902344 C 53.121094 20.730469 52.71875 20.761719 52.414063 20.984375 L 32.585938 35.34375 C 32.234375 35.597656 31.761719 35.597656 31.410156 35.34375 L 11.589844 20.984375 C 11.285156 20.761719 10.882813 20.730469 10.546875 20.902344 C 10.210938 21.074219 10 21.417969 10 21.796875 L 10 50 L 7 50 C 5.347656 50 4 48.652344 4 47 L 4 13 C 4 11.773438 4.742188 10.722656 5.796875 10.257813 Z M 52 23.75 L 52 44 C 51.449219 44 51 44.445313 51 45 L 51 47 C 51 47.554688 51.449219 48 52 48 L 52 50 L 12 50 L 12 48 C 12.550781 48 13 47.554688 13 47 L 13 45 C 13 44.445313 12.550781 44 12 44 L 12 23.753906 L 30.238281 36.960938 C 31.292969 37.726563 32.707031 37.726563 33.761719 36.960938 Z M 17 44 C 16.449219 44 16 44.445313 16 45 L 16 47 C 16 47.554688 16.449219 48 17 48 C 17.550781 48 18 47.554688 18 47 L 18 45 C 18 44.445313 17.550781 44 17 44 Z M 22 44 C 21.449219 44 21 44.445313 21 45 L 21 47 C 21 47.554688 21.449219 48 22 48 C 22.550781 48 23 47.554688 23 47 L 23 45 C 23 44.445313 22.550781 44 22 44 Z M 27 44 C 26.449219 44 26 44.445313 26 45 L 26 47 C 26 47.554688 26.449219 48 27 48 C 27.550781 48 28 47.554688 28 47 L 28 45 C 28 44.445313 27.550781 44 27 44 Z M 32 44 C 31.449219 44 31 44.445313 31 45 L 31 47 C 31 47.554688 31.449219 48 32 48 C 32.550781 48 33 47.554688 33 47 L 33 45 C 33 44.445313 32.550781 44 32 44 Z M 37 44 C 36.449219 44 36 44.445313 36 45 L 36 47 C 36 47.554688 36.449219 48 37 48 C 37.550781 48 38 47.554688 38 47 L 38 45 C 38 44.445313 37.550781 44 37 44 Z M 42 44 C 41.449219 44 41 44.445313 41 45 L 41 47 C 41 47.554688 41.449219 48 42 48 C 42.550781 48 43 47.554688 43 47 L 43 45 C 43 44.445313 42.550781 44 42 44 Z M 47 44 C 46.449219 44 46 44.445313 46 45 L 46 47 C 46 47.554688 46.449219 48 47 48 C 47.550781 48 48 47.554688 48 47 L 48 45 C 48 44.445313 47.550781 44 47 44 Z"/></svg>