<?xml version="1.0"?><svg fill="#26e07f" xmlns="http://www.w3.org/2000/svg"  viewBox="0 0 64 64" width="64px" height="64px">    <path d="M 32 3 C 16.009 3 3 16.01 3 32 C 3 47.99 16.009 61 32 61 C 47.991 61 61 47.99 61 32 C 61 16.01 47.991 3 32 3 z M 32 5 C 46.888 5 59 17.112 59 32 C 59 46.888 46.888 59 32 59 C 17.112 59 5 46.888 5 32 C 5 17.112 17.112 5 32 5 z M 32 8 C 18.767 8 8 18.767 8 32 C 8 34.113 8.2744063 36.209469 8.8164062 38.230469 C 8.9354062 38.677469 9.34025 38.970703 9.78125 38.970703 C 9.86725 38.970703 9.9559688 38.9605 10.042969 38.9375 C 10.576969 38.7945 10.891047 38.245891 10.748047 37.712891 C 10.251047 35.859891 10 33.938 10 32 C 10 19.869 19.869 10 32 10 C 37.706 10 43.115469 12.174047 47.230469 16.123047 C 47.628469 16.504047 48.262531 16.494703 48.644531 16.095703 C 49.027531 15.697703 49.013234 15.064641 48.615234 14.681641 C 44.125234 10.373641 38.225 8 32 8 z M 39.195312 18.773438 C 37.197688 18.838437 35.226453 19.664781 33.751953 21.238281 C 32.395953 22.686281 31.640625 24.596078 31.640625 26.580078 L 31.640625 27.199219 C 26.730625 26.657219 22.227609 24.213625 19.099609 20.390625 C 18.792609 20.014625 18.237328 19.957625 17.861328 20.265625 C 17.780328 20.331625 17.713156 20.41 17.660156 20.5 C 16.220156 22.981 16.255 26.052 17.75 28.5 C 17.299 28.318 16.785516 28.535328 16.603516 28.986328 C 16.563516 29.086328 16.541062 29.193781 16.539062 29.300781 L 16.539062 29.400391 C 16.555062 31.788391 17.660062 34.036766 19.539062 35.509766 C 19.101063 35.669766 18.866 36.143844 19 36.589844 C 19.772 38.959844 21.63 40.817844 24 41.589844 C 21.609 42.889844 18.872922 43.416609 16.169922 43.099609 C 15.686922 43.046609 15.252219 43.395906 15.199219 43.878906 C 15.163219 44.207906 15.313844 44.528937 15.589844 44.710938 C 18.897844 46.849938 22.750453 47.991 26.689453 48 C 32.536453 48.137 38.143 45.675297 42 41.279297 C 45.374 37.441297 47.255781 32.520156 47.300781 27.410156 L 47.300781 26.939453 C 48.586781 25.951453 49.699609 24.759156 50.599609 23.410156 C 50.864609 23.002156 50.749797 22.457359 50.341797 22.193359 C 50.096797 22.034359 49.788531 22.006141 49.519531 22.119141 L 49.490234 22.119141 L 48.800781 22.400391 C 49.207781 21.781391 49.523234 21.108391 49.740234 20.400391 C 49.869234 19.931391 49.592047 19.447359 49.123047 19.318359 C 48.899047 19.257359 48.662937 19.286391 48.460938 19.400391 C 47.319938 20.078391 46.081063 20.577859 44.789062 20.880859 C 43.215063 19.406359 41.192937 18.708438 39.195312 18.773438 z M 39.654297 20.597656 C 41.223109 20.654375 42.732844 21.319484 43.839844 22.490234 C 44.046844 22.710234 44.353391 22.808 44.650391 22.75 C 45.363391 22.609 46.065 22.414922 46.75 22.169922 C 46.35 22.607922 45.889859 22.984062 45.380859 23.289062 C 44.984859 23.571063 44.891828 24.121578 45.173828 24.517578 C 45.361828 24.781578 45.679 24.920859 46 24.880859 C 46.42 24.827859 46.837 24.759687 47.25 24.679688 C 46.816 25.083687 46.354141 25.459781 45.869141 25.800781 C 45.631141 25.974781 45.496766 26.255781 45.509766 26.550781 L 45.509766 27.410156 C 45.500766 37.815156 37.057344 46.241422 26.652344 46.232422 C 24.238344 46.230422 21.847375 45.764375 19.609375 44.859375 C 22.253375 44.536375 24.760375 43.499375 26.859375 41.859375 C 27.240375 41.557375 27.305906 41.004047 27.003906 40.623047 C 26.840906 40.416047 26.593078 40.294063 26.330078 40.289062 C 24.245078 40.253062 22.325 39.146375 21.25 37.359375 C 21.909 37.351375 22.563219 37.261844 23.199219 37.089844 C 23.667219 36.959844 23.9425 36.473859 23.8125 36.005859 C 23.7235 35.687859 23.464625 35.446859 23.140625 35.380859 C 20.797625 34.899859 18.955453 33.086 18.439453 30.75 C 19.113453 30.96 19.813531 31.077609 20.519531 31.099609 C 20.912531 31.120609 21.269859 30.868234 21.380859 30.490234 C 21.500859 30.116234 21.356297 29.708234 21.029297 29.490234 C 18.768297 27.982234 17.788859 25.154312 18.630859 22.570312 C 22.278859 26.471312 27.296859 28.805078 32.630859 29.080078 C 32.906859 29.098078 33.173609 28.982531 33.349609 28.769531 C 33.524609 28.558531 33.591297 28.277766 33.529297 28.009766 C 32.779297 24.747766 34.816125 21.495094 38.078125 20.746094 C 38.601625 20.625844 39.131359 20.57875 39.654297 20.597656 z M 54.041016 24.103516 C 53.911719 24.090984 53.778234 24.103531 53.646484 24.144531 C 53.119484 24.309531 52.826188 24.871437 52.992188 25.398438 C 53.660188 27.527438 54 29.748 54 32 C 54 34.687 53.520172 37.311781 52.576172 39.800781 C 52.381172 40.317781 52.641203 40.894844 53.158203 41.089844 C 53.274203 41.133844 53.393719 41.154297 53.511719 41.154297 C 53.915719 41.154297 54.296266 40.908766 54.447266 40.509766 C 55.478266 37.792766 56 34.93 56 32 C 56 29.545 55.629391 27.122828 54.900391 24.798828 C 54.775891 24.404328 54.428906 24.141109 54.041016 24.103516 z M 51.169922 42.001953 C 50.783016 41.952922 50.387438 42.135641 50.179688 42.494141 C 49.903688 42.972141 50.066922 43.583375 50.544922 43.859375 L 52.275391 44.861328 C 52.433391 44.953328 52.605391 44.996094 52.775391 44.996094 C 53.121391 44.996094 53.457578 44.818047 53.642578 44.498047 C 53.918578 44.020047 53.755344 43.408813 53.277344 43.132812 L 51.546875 42.130859 C 51.427125 42.060859 51.298891 42.018297 51.169922 42.001953 z M 48.398438 45.587891 C 48.143062 45.603141 47.894437 45.717328 47.710938 45.923828 C 47.343938 46.337828 47.381922 46.969938 47.794922 47.335938 L 49.291016 48.662109 C 49.481016 48.831109 49.717125 48.914062 49.953125 48.914062 C 50.229125 48.914062 50.504125 48.801125 50.703125 48.578125 C 51.070125 48.164125 51.032141 47.532016 50.619141 47.166016 L 49.123047 45.839844 C 48.916047 45.656344 48.653813 45.572641 48.398438 45.587891 z M 16.646484 48.177734 C 16.390984 48.192359 16.140531 48.305219 15.957031 48.511719 C 15.590031 48.923719 15.625109 49.554875 16.037109 49.921875 C 20.434109 53.841875 26.104 56 32 56 C 32.629 56 33.270297 55.974781 33.904297 55.925781 C 34.454297 55.882781 34.865266 55.401562 34.822266 54.851562 C 34.779266 54.300563 34.295047 53.885641 33.748047 53.931641 C 27.717047 54.397641 21.829141 52.405687 17.369141 48.429688 C 17.162641 48.245688 16.901984 48.163109 16.646484 48.177734 z M 45.345703 48.603516 C 45.092328 48.567641 44.824516 48.627969 44.603516 48.792969 C 44.162516 49.124969 44.07425 49.752359 44.40625 50.193359 L 45.607422 51.792969 C 45.803422 52.053969 46.104203 52.191406 46.408203 52.191406 C 46.617203 52.191406 46.827813 52.125234 47.007812 51.990234 C 47.448812 51.658234 47.537078 51.032797 47.205078 50.591797 L 46.003906 48.992188 C 45.838406 48.771688 45.599078 48.639391 45.345703 48.603516 z M 41.375 50.886719 C 41.245125 50.892156 41.113281 50.923422 40.988281 50.982422 C 40.489281 51.218422 40.276672 51.815453 40.513672 52.314453 L 41.371094 54.121094 C 41.542094 54.481094 41.901391 54.691406 42.275391 54.691406 C 42.418391 54.691406 42.564125 54.660703 42.703125 54.595703 C 43.202125 54.359703 43.414734 53.762672 43.177734 53.263672 L 42.320312 51.457031 C 42.143312 51.083531 41.764625 50.870406 41.375 50.886719 z M 37.400391 52.373047 C 37.272469 52.352391 37.138609 52.357625 37.005859 52.390625 C 36.469859 52.522625 36.142437 53.062609 36.273438 53.599609 L 36.748047 55.542969 C 36.860047 55.998969 37.26875 56.304688 37.71875 56.304688 C 37.79775 56.304688 37.877031 56.295391 37.957031 56.275391 C 38.493031 56.143391 38.822406 55.601453 38.691406 55.064453 L 38.214844 53.123047 C 38.115844 52.721047 37.784156 52.435016 37.400391 52.373047 z"/></svg>