<svg fill="#26e07f" xmlns="http://www.w3.org/2000/svg"  viewBox="0 0 64 64" width="64px" height="64px"><path d="M 13 6 C 9.140625 6 6 9.140625 6 13 L 6 51 C 6 54.859375 9.140625 58 13 58 L 51 58 C 54.859375 58 58 54.859375 58 51 L 58 13 C 58 9.140625 54.859375 6 51 6 Z M 13 8 L 51 8 C 53.757813 8 56 10.242188 56 13 L 56 51 C 56 53.757813 53.757813 56 51 56 L 13 56 C 10.242188 56 8 53.757813 8 51 L 8 13 C 8 10.242188 10.242188 8 13 8 Z M 12 12 C 11.445313 12 11 12.449219 11 13 L 11 15 C 11 15.550781 11.445313 16 12 16 C 12.554688 16 13 15.550781 13 15 L 13 13 C 13 12.449219 12.554688 12 12 12 Z M 17 12 C 16.445313 12 16 12.449219 16 13 L 16 15 C 16 15.550781 16.445313 16 17 16 C 17.554688 16 18 15.550781 18 15 L 18 13 C 18 12.449219 17.554688 12 17 12 Z M 22 12 C 21.445313 12 21 12.449219 21 13 L 21 15 C 21 15.550781 21.445313 16 22 16 C 22.554688 16 23 15.550781 23 15 L 23 13 C 23 12.449219 22.554688 12 22 12 Z M 27 12 C 26.445313 12 26 12.449219 26 13 L 26 15 C 26 15.550781 26.445313 16 27 16 C 27.554688 16 28 15.550781 28 15 L 28 13 C 28 12.449219 27.554688 12 27 12 Z M 32 12 C 31.445313 12 31 12.449219 31 13 L 31 15 C 31 15.550781 31.445313 16 32 16 C 32.554688 16 33 15.550781 33 15 L 33 13 C 33 12.449219 32.554688 12 32 12 Z M 37 12 C 36.445313 12 36 12.449219 36 13 L 36 15 C 36 15.550781 36.445313 16 37 16 C 37.554688 16 38 15.550781 38 15 L 38 13 C 38 12.449219 37.554688 12 37 12 Z M 42 12 C 41.445313 12 41 12.449219 41 13 L 41 15 C 41 15.550781 41.445313 16 42 16 C 42.554688 16 43 15.550781 43 15 L 43 13 C 43 12.449219 42.554688 12 42 12 Z M 47 12 C 46.445313 12 46 12.449219 46 13 L 46 15 C 46 15.550781 46.445313 16 47 16 C 47.554688 16 48 15.550781 48 15 L 48 13 C 48 12.449219 47.554688 12 47 12 Z M 52 12 C 51.445313 12 51 12.449219 51 13 L 51 15 C 51 15.550781 51.445313 16 52 16 C 52.554688 16 53 15.550781 53 15 L 53 13 C 53 12.449219 52.554688 12 52 12 Z M 19.5 18 C 17.019531 18 15 20.019531 15 22.5 C 15 24.980469 17.019531 27 19.5 27 C 21.980469 27 24 24.980469 24 22.5 C 24 20.019531 21.980469 18 19.5 18 Z M 19.5 19.671875 C 21.058594 19.671875 22.328125 20.941406 22.328125 22.5 C 22.328125 24.058594 21.058594 25.328125 19.5 25.328125 C 17.941406 25.328125 16.671875 24.058594 16.671875 22.5 C 16.671875 20.941406 17.941406 19.671875 19.5 19.671875 Z M 39.875 27.4375 C 37.558594 27.4375 35.726563 28.253906 34.433594 29.3125 L 34.433594 28.972656 C 34.433594 28.421875 33.988281 27.972656 33.433594 27.972656 L 27 27.972656 C 26.449219 27.972656 26 28.421875 26 28.972656 L 26 51 C 26 51.550781 26.449219 52 27 52 L 33.703125 52 C 34.257813 52 34.703125 51.550781 34.703125 51 L 34.703125 39.886719 C 34.703125 36.574219 35.523438 35.34375 37.730469 35.34375 C 39.855469 35.34375 40.214844 36.800781 40.214844 40.066406 L 40.214844 51 C 40.214844 51.550781 40.660156 52 41.214844 52 L 47.921875 52 C 48.476563 52 48.921875 51.550781 48.921875 51 L 48.921875 38.722656 C 48.925781 33.144531 47.851563 27.4375 39.875 27.4375 Z M 16 28 C 15.445313 28 15 28.449219 15 29 L 15 51 C 15 51.550781 15.445313 52 16 52 L 23 52 C 23.554688 52 24 51.550781 24 51 L 24 29 C 24 28.449219 23.554688 28 23 28 Z M 39.875 29.4375 C 45.746094 29.4375 46.925781 32.988281 46.925781 38.722656 L 46.925781 50 L 42.214844 50 L 42.214844 40.0625 C 42.214844 37.714844 42.214844 33.339844 37.730469 33.339844 C 32.703125 33.339844 32.703125 38.265625 32.703125 39.886719 L 32.703125 50 L 28 50 L 28 29.972656 L 32.4375 29.972656 L 32.4375 31.925781 C 32.4375 32.476563 32.972656 32.925781 33.527344 32.925781 C 33.898438 32.925781 34.238281 32.71875 34.410156 32.390625 C 35.128906 31.027344 36.992188 29.4375 39.875 29.4375 Z M 17 30 L 22 30 L 22 50 L 17 50 Z"/></svg>